<?xml version="1.0" encoding="utf-8"?>
<!-- Generator: Adobe Illustrator 18.1.0, SVG Export Plug-In . SVG Version: 6.00 Build 0)  -->
<!DOCTYPE svg PUBLIC "-//W3C//DTD SVG 1.1//EN" "http://www.w3.org/Graphics/SVG/1.1/DTD/svg11.dtd">
<svg version="1.1" id="Layer_1" xmlns="http://www.w3.org/2000/svg" xmlns:xlink="http://www.w3.org/1999/xlink" x="0px" y="0px"
	 viewBox="0 0 32 32" enable-background="new 0 0 32 32" xml:space="preserve">
<g>
	<path fill="#A7A9AC" d="M22,10.3c-0.3-0.3-0.8-0.3-1.1,0l-7.9,8l-1.9-1.9c-0.3-0.3-0.8-0.3-1.1,0l-1.3,1.3c-0.3,0.3-0.3,0.8,0,1.1
		l2.4,2.4c0,0,0,0,0,0l1.3,1.3c0.3,0.3,0.8,0.3,1.1,0l1.3-1.3c0,0,0,0,0,0l8.5-8.6c0.3-0.3,0.3-0.8,0-1.1L22,10.3z"/>
	<path fill="#A7A9AC" d="M16,28C9.4,28,4,22.6,4,16S9.4,4,16,4s12,5.4,12,12S22.6,28,16,28z M16,5.4C10.2,5.4,5.4,10.2,5.4,16
		S10.2,26.6,16,26.6S26.6,21.8,26.6,16S21.8,5.4,16,5.4z"/>
</g>
</svg>
