<?xml version="1.0" encoding="utf-8"?>
<!-- Generator: Adobe Illustrator 18.1.0, SVG Export Plug-In . SVG Version: 6.00 Build 0)  -->
<!DOCTYPE svg PUBLIC "-//W3C//DTD SVG 1.1//EN" "http://www.w3.org/Graphics/SVG/1.1/DTD/svg11.dtd">
<svg version="1.1" id="Layer_1" xmlns="http://www.w3.org/2000/svg" xmlns:xlink="http://www.w3.org/1999/xlink" x="0px" y="0px"
	 viewBox="0 0 32 32" enable-background="new 0 0 32 32" xml:space="preserve">
<g>
	<path fill="#5B5B5B" d="M16,4C9.4,4,4,9.4,4,16c0,6.6,5.4,12,12,12c6.6,0,12-5.4,12-12C28,9.4,22.6,4,16,4z M23.3,12.6l-8.5,8.6
		c0,0,0,0,0,0l-1.3,1.3c-0.3,0.3-0.8,0.3-1.1,0l-1.3-1.3c0,0,0,0,0,0l-2.4-2.4c-0.3-0.3-0.3-0.8,0-1.1l1.3-1.3
		c0.3-0.3,0.8-0.3,1.1,0l1.9,1.9l7.9-8c0.3-0.3,0.8-0.3,1.1,0l1.3,1.3C23.6,11.8,23.6,12.3,23.3,12.6z"/>
</g>
</svg>
