<?xml version="1.0" encoding="utf-8"?>
<!-- Generator: Adobe Illustrator 16.0.3, SVG Export Plug-In . SVG Version: 6.00 Build 0)  -->
<!DOCTYPE svg PUBLIC "-//W3C//DTD SVG 1.1//EN" "http://www.w3.org/Graphics/SVG/1.1/DTD/svg11.dtd">
<svg version="1.1" id="Layer_1" xmlns="http://www.w3.org/2000/svg" xmlns:xlink="http://www.w3.org/1999/xlink" x="0px" y="0px"
	 width="32px" height="32px" viewBox="0 0 32 32" enable-background="new 0 0 32 32" xml:space="preserve">
<g>
	<path fill="#5A5A5A" d="M16.5,1C7.939,1,1,7.939,1,16.5S7.939,32,16.5,32S32,25.061,32,16.5S25.061,1,16.5,1z M23.691,17.1
		l-9.444,6.744c-0.139,0.1-0.305,0.15-0.472,0.15c-0.12,0-0.235-0.026-0.346-0.08C13.163,23.787,13,23.528,13,23.244V9.756
		c0-0.284,0.163-0.543,0.429-0.67c0.111-0.053,0.229-0.079,0.349-0.079c0.167,0,0.332,0.051,0.471,0.15l9.443,6.745
		c0.198,0.141,0.314,0.363,0.314,0.599C24.007,16.736,23.89,16.958,23.691,17.1z"/>
</g>
</svg>
