<?xml version="1.0" encoding="utf-8"?>
<!-- Generator: Adobe Illustrator 16.0.3, SVG Export Plug-In . SVG Version: 6.00 Build 0)  -->
<!DOCTYPE svg PUBLIC "-//W3C//DTD SVG 1.1//EN" "http://www.w3.org/Graphics/SVG/1.1/DTD/svg11.dtd">
<svg version="1.1" id="Layer_1" xmlns="http://www.w3.org/2000/svg" xmlns:xlink="http://www.w3.org/1999/xlink" x="0px" y="0px"
	 width="32px" height="32px" viewBox="0 0 32 32" enable-background="new 0 0 32 32" xml:space="preserve">
<path fill-rule="evenodd" clip-rule="evenodd" fill="#5A5A5A" d="M18.123,27c0.015,0,0.025,0,0.039,0h-4.355
	c0.014,0,0.025,0,0.039,0H1.971l0.004-2.044c0,0,4.174-2.419,4.174-8.583C6.149,9.47,7.219,4,14.866,4h2.167
	c7.675,0,8.694,5.506,8.694,12.358c0,6.166,4.232,8.625,4.232,8.625L30.029,27H18.123z M14.062,2c0.017-1,0.875-1.905,1.934-1.905
	C17.055,0.095,17.912,1,17.93,2H14.062z M18.961,29c0.001,0,0.011,0.026,0.011,0.063c0,1.649-1.337,2.964-2.987,2.964
	c-1.649,0-2.987-1.303-2.987-2.952c0-0.037,0.009-0.075,0.011-0.075H18.961z"/>
</svg>
