<?xml version="1.0" encoding="utf-8"?>
<!-- Generator: Adobe Illustrator 16.0.3, SVG Export Plug-In . SVG Version: 6.00 Build 0)  -->
<!DOCTYPE svg PUBLIC "-//W3C//DTD SVG 1.1//EN" "http://www.w3.org/Graphics/SVG/1.1/DTD/svg11.dtd">
<svg version="1.1" id="Layer_1" xmlns="http://www.w3.org/2000/svg" xmlns:xlink="http://www.w3.org/1999/xlink" x="0px" y="0px"
	 width="32px" height="32px" viewBox="0 0 32 32" enable-background="new 0 0 32 32" xml:space="preserve">
<g>
	<path fill="#FFFFFF" d="M16,0C7.164,0,0,7.164,0,16c0,8.837,7.164,16,16,16c8.837,0,16-7.163,16-16C32,7.164,24.837,0,16,0z
		 M24.678,21.501c0.4,0.401,0.401,1.052,0,1.454l-1.754,1.756c-0.401,0.401-1.052,0.401-1.453,0l-5.442-5.444l-5.378,5.441
		c-0.397,0.401-1.042,0.402-1.439,0l-1.737-1.757c-0.397-0.402-0.397-1.054,0-1.455l5.36-5.424L7.29,10.525
		c-0.401-0.402-0.401-1.053,0-1.455l1.753-1.756c0.401-0.401,1.051-0.4,1.453,0l5.527,5.53l5.488-5.554
		c0.397-0.401,1.042-0.402,1.44,0l1.737,1.756c0.397,0.402,0.396,1.053,0,1.455l-5.472,5.537L24.678,21.501z"/>
</g>
</svg>
