<?xml version="1.0" encoding="utf-8"?>
<!-- Generator: Adobe Illustrator 16.0.3, SVG Export Plug-In . SVG Version: 6.00 Build 0)  -->
<!DOCTYPE svg PUBLIC "-//W3C//DTD SVG 1.1//EN" "http://www.w3.org/Graphics/SVG/1.1/DTD/svg11.dtd">
<svg version="1.1" id="Layer_1" xmlns="http://www.w3.org/2000/svg" xmlns:xlink="http://www.w3.org/1999/xlink" x="0px" y="0px"
	 width="32px" height="32px" viewBox="0 0 32 32" enable-background="new 0 0 32 32" xml:space="preserve">
<g>
	<path fill="#49B250" d="M16,0C7.164,0,0,7.164,0,16c0,8.837,7.164,16,16,16c8.837,0,16-7.163,16-16C32,7.164,24.837,0,16,0z
		 M25.689,11.502L14.392,22.944c-0.002,0.002-0.002,0.005-0.004,0.007l-1.737,1.757c-0.397,0.402-1.042,0.402-1.439,0l-1.737-1.757
		c-0.003-0.003-0.004-0.007-0.006-0.01l-3.188-3.23c-0.398-0.402-0.398-1.053-0.001-1.455l1.738-1.757
		c0.397-0.402,1.042-0.402,1.439,0l2.475,2.508L22.512,8.29c0.397-0.401,1.042-0.402,1.44,0l1.737,1.756
		C26.087,10.449,26.086,11.1,25.689,11.502z"/>
</g>
</svg>
