<?xml version="1.0" encoding="utf-8"?>
<!-- Generator: Adobe Illustrator 16.0.3, SVG Export Plug-In . SVG Version: 6.00 Build 0)  -->
<!DOCTYPE svg PUBLIC "-//W3C//DTD SVG 1.1//EN" "http://www.w3.org/Graphics/SVG/1.1/DTD/svg11.dtd">
<svg version="1.1" id="Layer_1" xmlns="http://www.w3.org/2000/svg" xmlns:xlink="http://www.w3.org/1999/xlink" x="0px" y="0px"
	 viewBox="0 0 32 32" enable-background="new 0 0 32 32" xml:space="preserve">
<g>
	<path fill="#EF9301" d="M16.5,1C7.939,1,1,7.939,1,16.5S7.939,32,16.5,32S32,25.061,32,16.5S25.061,1,16.5,1z M25.657,25H7.342
		c-0.991,0-1.729-1.02-1.149-2.027c0.464-0.807,8.335-16.944,9.137-18.321c0.526-0.904,1.781-0.889,2.309,0
		c0.588,0.992,8.507,17.189,9.161,18.363C27.279,23.873,26.749,25,25.657,25z M17.229,18L18,12.761V9h-3v3.761L15.76,18H17.229z
		 M15,23h3v-3h-3V23z"/>
</g>
</svg>
