<?xml version="1.0" encoding="utf-8"?>
<!-- Generator: Adobe Illustrator 16.0.3, SVG Export Plug-In . SVG Version: 6.00 Build 0)  -->
<!DOCTYPE svg PUBLIC "-//W3C//DTD SVG 1.1//EN" "http://www.w3.org/Graphics/SVG/1.1/DTD/svg11.dtd">
<svg version="1.1" id="Layer_1" xmlns="http://www.w3.org/2000/svg" xmlns:xlink="http://www.w3.org/1999/xlink" x="0px" y="0px"
	 width="32px" height="32px" viewBox="0 0 32 32" enable-background="new 0 0 32 32" xml:space="preserve">
<g>
	<path fill-rule="evenodd" clip-rule="evenodd" fill="#5A5A5A" d="M25.857,10.843l-5.514-7.646c-0.19-0.264-0.499-0.264-0.689,0
		l-5.511,7.642c-0.139,0.193-0.181,0.487-0.105,0.74S14.291,12,14.488,12H18v17.213C18,29.646,18.317,30,18.732,30h2.5
		C21.647,30,22,29.646,22,29.213V12h3.513c0.132,0,0.255-0.075,0.345-0.199c0.044-0.062,0.08-0.136,0.105-0.22
		C26.038,11.328,25.996,11.037,25.857,10.843z M15.177,26h-9.39C5.343,26,5,26.345,5,26.758v2.485C5,29.655,5.343,30,5.787,30h9.39
		C15.621,30,16,29.655,16,29.243v-2.485C16,26.345,15.621,26,15.177,26z M15.144,20H8.845C8.383,20,8,20.324,8,20.74v2.504
		C8,23.659,8.383,24,8.845,24h6.299C15.605,24,16,23.659,16,23.244V20.74C16,20.324,15.605,20,15.144,20z M15.206,14h-3.431
		C11.347,14,11,14.33,11,14.746v2.504c0,0.415,0.347,0.75,0.775,0.75h3.431C15.634,18,16,17.665,16,17.25v-2.504
		C16,14.33,15.634,14,15.206,14z"/>
</g>
</svg>
