<?xml version="1.0" encoding="utf-8"?>
<!-- Generator: Adobe Illustrator 16.0.3, SVG Export Plug-In . SVG Version: 6.00 Build 0)  -->
<!DOCTYPE svg PUBLIC "-//W3C//DTD SVG 1.1//EN" "http://www.w3.org/Graphics/SVG/1.1/DTD/svg11.dtd">
<svg version="1.1" id="Layer_1" xmlns="http://www.w3.org/2000/svg" xmlns:xlink="http://www.w3.org/1999/xlink" x="0px" y="0px"
	 width="32px" height="32px" viewBox="0 0 32 32" enable-background="new 0 0 32 32" xml:space="preserve">
<g>
	<path fill="#0096D6" d="M16.5,1C7.939,1,1,7.939,1,16.5S7.939,32,16.5,32S32,25.061,32,16.5S25.061,1,16.5,1z M18,25h-3v-3h3V25z
		 M21.462,15.444c-0.367,0.598-1.15,1.411-2.353,2.439c-0.621,0.532-1.007,1.008-1.157,1.331C17.802,19.539,17.733,20,17.748,21
		h-2.672c-0.007,0-0.011-0.684-0.011-0.77c0-0.893,0.144-1.65,0.43-2.226c0.286-0.576,0.859-1.235,1.719-1.955
		c0.858-0.72,1.372-1.197,1.54-1.42c0.258-0.353,0.388-0.744,0.388-1.169c0-0.59-0.229-1.097-0.687-1.518
		c-0.458-0.421-1.074-0.632-1.85-0.632c-0.747,0-1.372,0.22-1.875,0.658c-0.503,0.439-0.849,1.108-1.038,2.007L11,14
		c0.077-1.288,0.599-2.751,1.588-3.651C13.576,9.45,14.873,9,16.48,9c1.689,0,3.034,0.455,4.033,1.366
		c0.999,0.91,1.498,1.97,1.498,3.179C22.012,14.214,21.828,14.847,21.462,15.444z"/>
</g>
</svg>
