<?xml version="1.0" encoding="utf-8"?>
<!-- Generator: Adobe Illustrator 16.0.3, SVG Export Plug-In . SVG Version: 6.00 Build 0)  -->
<!DOCTYPE svg PUBLIC "-//W3C//DTD SVG 1.1//EN" "http://www.w3.org/Graphics/SVG/1.1/DTD/svg11.dtd">
<svg version="1.1" id="Layer_1" xmlns="http://www.w3.org/2000/svg" xmlns:xlink="http://www.w3.org/1999/xlink" x="0px" y="0px"
	 width="32px" height="32px" viewBox="0 0 32 32" enable-background="new 0 0 32 32" xml:space="preserve">
<g>
	<path fill-rule="evenodd" clip-rule="evenodd" fill="#5A5A5A" d="M31.699,28.905l-9.089-9.088c1.493-2.059,2.385-4.583,2.385-7.321
		c0-6.899-5.593-12.493-12.492-12.493S0.011,5.597,0.011,12.496s5.593,12.493,12.492,12.493c2.731,0,5.249-0.887,7.305-2.373
		l9.09,9.091c0.387,0.387,1.014,0.387,1.401,0l1.4-1.4C32.086,29.919,32.086,29.292,31.699,28.905z M12.487,20.991
		c-4.692,0-8.495-3.804-8.495-8.495c0-4.692,3.803-8.495,8.495-8.495c4.691,0,8.494,3.803,8.494,8.495
		C20.981,17.188,17.179,20.991,12.487,20.991z"/>
</g>
</svg>
