<?xml version="1.0" encoding="utf-8"?>
<!-- Generator: Adobe Illustrator 16.0.3, SVG Export Plug-In . SVG Version: 6.00 Build 0)  -->
<!DOCTYPE svg PUBLIC "-//W3C//DTD SVG 1.1//EN" "http://www.w3.org/Graphics/SVG/1.1/DTD/svg11.dtd">
<svg version="1.1" id="Layer_1" xmlns="http://www.w3.org/2000/svg" xmlns:xlink="http://www.w3.org/1999/xlink" x="0px" y="0px"
	 width="32px" height="32px" viewBox="0 0 32 32" enable-background="new 0 0 32 32" xml:space="preserve">
<g>
	<path fill-rule="evenodd" clip-rule="evenodd" fill="#5A5A5A" d="M28.858,24.607c-1.781-0.886-3.477-1.951-7.689-3.51
		c-0.563-0.704-1.117-1.574-1.16-2.091c-0.075-0.898,0.038-1.813,0.176-2.525c0.574-0.793,1.066-1.722,1.478-2.715
		c0.135,0.117,0.284,0.204,0.452,0.232c0.794,0.134,1.62-0.877,1.845-2.257c0.224-1.37-0.23-2.586-1.014-2.735
		c0.003-0.019,0.006-0.037,0.009-0.056c0.626-4.626-3.118-7.938-6.965-7.938s-7.42,3.256-6.965,7.938
		c0.002,0.024,0.007,0.05,0.009,0.074c-0.75,0.194-1.179,1.378-0.961,2.716c0.225,1.38,1.051,2.391,1.845,2.257
		c0.138-0.023,0.261-0.089,0.377-0.174c0.394,0.914,0.863,1.774,1.406,2.519c0.189,0.522,0.35,1.28,0.31,2.59
		c-0.031,1.001-0.696,1.871-1.473,2.555c-3.935,1.407-5.659,2.264-7.378,3.119C1.018,25.673,1.018,31,1.018,31H31
		C31,31,31,25.673,28.858,24.607z"/>
</g>
</svg>
