<?xml version="1.0" encoding="utf-8"?>
<!-- Generator: Adobe Illustrator 16.0.3, SVG Export Plug-In . SVG Version: 6.00 Build 0)  -->
<!DOCTYPE svg PUBLIC "-//W3C//DTD SVG 1.1//EN" "http://www.w3.org/Graphics/SVG/1.1/DTD/svg11.dtd">
<svg version="1.1" id="Layer_1" xmlns="http://www.w3.org/2000/svg" xmlns:xlink="http://www.w3.org/1999/xlink" x="0px" y="0px"
	 width="32px" height="32px" viewBox="0 0 32 32" enable-background="new 0 0 32 32" xml:space="preserve">
<g>
	<path fill-rule="evenodd" clip-rule="evenodd" fill="#5A5A5A" d="M27,15c0.552,0,1-0.448,1-1s-0.448-1-1-1h-2v-2h2
		c0.552,0,1-0.448,1-1s-0.448-1-1-1h-2V8.125C25,7.507,24.537,7,23.952,7H23c0,0,0,0.002,0,0V5c0-0.552-0.448-1-1-1
		c-0.553,0-1,0.448-1,1v2c0,0.002,0.001,0,0.001,0H19c0,0,0,0.002,0,0V5c0-0.552-0.448-1-1-1c-0.553,0-1,0.448-1,1v2
		c0,0.002,0.001,0,0.001,0h-2.002C14.999,7,15,7.002,15,7V5c0-0.552-0.448-1-1-1c-0.552,0-1,0.448-1,1v2c0,0.002,0.001,0,0.001,0
		h-2.003C10.999,7,11,7.002,11,7V5c0-0.552-0.448-1-1-1S9,4.448,9,5v2c0,0.002,0.001,0,0.001,0H8.058C7.473,7,7,7.507,7,8.125V9H5
		c-0.552,0-1,0.448-1,1s0.448,1,1,1h2v2H5c-0.552,0-1,0.448-1,1s0.448,1,1,1h2v2H5c-0.552,0-1,0.447-1,1s0.448,1,1,1h2v2H5
		c-0.552,0-1,0.447-1,1s0.448,1,1,1h2v0.896C7,24.514,7.473,25,8.058,25H9v2c0,0.552,0.448,1,1,1s1-0.448,1-1v-2h2v2
		c0,0.552,0.448,1,1,1c0.552,0,1-0.448,1-1v-2h2v2c0,0.552,0.447,1,1,1c0.552,0,1-0.448,1-1v-2h2v2c0,0.552,0.447,1,1,1
		c0.552,0,1-0.448,1-1v-2h0.952C24.537,25,25,24.514,25,23.896V23h2c0.552,0,1-0.447,1-1s-0.448-1-1-1h-2v-2h2c0.552,0,1-0.447,1-1
		s-0.448-1-1-1h-2v-2H27z M23,23H9V9h14V23z"/>
</g>
</svg>
