<?xml version="1.0" encoding="utf-8"?>
<!-- Generator: Adobe Illustrator 16.0.3, SVG Export Plug-In . SVG Version: 6.00 Build 0)  -->
<!DOCTYPE svg PUBLIC "-//W3C//DTD SVG 1.1//EN" "http://www.w3.org/Graphics/SVG/1.1/DTD/svg11.dtd">
<svg version="1.1" id="Layer_1" xmlns="http://www.w3.org/2000/svg" xmlns:xlink="http://www.w3.org/1999/xlink" x="0px" y="0px"
	 width="32px" height="32px" viewBox="0 0 32 32" enable-background="new 0 0 32 32" xml:space="preserve">
<g>
	<path fill="#5A5A5A" d="M16,2.99c-8.289,0-15.008,6.72-15.008,15.008c0,4.916,2.373,9.264,6.023,12.002
		c2.615-0.807,5.689-1.359,8.988-1.359c3.299,0,6.366,0.553,8.981,1.359c3.65-2.738,6.023-7.086,6.023-12.002
		C31.008,9.71,24.289,2.99,16,2.99z M5.964,24.717c-1.257-1.938-1.953-4.209-1.953-6.605c0-6.691,5.38-12.134,11.992-12.134
		c1.926,0,3.741,0.473,5.356,1.293c-0.369,0.584-0.719,1.139-1.061,1.678C18.996,8.347,17.543,8,16.003,8
		C10.488,8,6,12.326,6,17.641c0,2.381,0.876,4.602,2.487,6.35L5.964,24.717z M14.708,25.797c-1.001-0.477-1.421-1.674-0.937-2.676
		c0.026-0.057,9.429-14.944,9.429-14.944c0.057-0.109,0.166-0.186,0.297-0.186c0.188,0,0.338,0.151,0.338,0.339
		c0,0.03-0.01,0.058-0.018,0.086c0,0-6.4,16.382-6.42,16.423C16.915,25.844,15.711,26.271,14.708,25.797z M23.521,23.988
		c1.609-1.75,2.484-3.969,2.484-6.348c0-1.901-0.582-3.671-1.572-5.167c0.26-0.662,0.529-1.353,0.814-2.083
		c1.715,2.1,2.748,4.791,2.748,7.721c0,2.401-0.699,4.675-1.959,6.615L23.521,23.988z"/>
</g>
</svg>
