<?xml version="1.0" encoding="utf-8"?>
<!-- Generator: Adobe Illustrator 16.0.3, SVG Export Plug-In . SVG Version: 6.00 Build 0)  -->
<!DOCTYPE svg PUBLIC "-//W3C//DTD SVG 1.1//EN" "http://www.w3.org/Graphics/SVG/1.1/DTD/svg11.dtd">
<svg version="1.1" id="Layer_1" xmlns="http://www.w3.org/2000/svg" xmlns:xlink="http://www.w3.org/1999/xlink" x="0px" y="0px"
	 width="32px" height="32px" viewBox="0 0 32 32" enable-background="new 0 0 32 32" xml:space="preserve">
<g>
	<path fill-rule="evenodd" clip-rule="evenodd" fill="#5A5A5A" d="M29,1H3C2.448,1,2,1.448,2,2v8h28V2C30,1.448,29.552,1,29,1z
		 M22,8h-1V3h1V8z M25,8h-1V3h1V8z M28,8h-1V3h1V8z M2,20h28v-9H2V20z M27,13h1v5h-1V13z M24,13h1v5h-1V13z M21,13h1v5h-1V13z M2,29
		c0,0.552,0.448,1,1,1h26c0.552,0,1-0.448,1-1v-8H2V29z M27,23h1v5h-1V23z M24,23h1v5h-1V23z M21,23h1v5h-1V23z"/>
</g>
</svg>
