<?xml version="1.0" encoding="utf-8"?>
<!-- Generator: Adobe Illustrator 16.0.3, SVG Export Plug-In . SVG Version: 6.00 Build 0)  -->
<!DOCTYPE svg PUBLIC "-//W3C//DTD SVG 1.1//EN" "http://www.w3.org/Graphics/SVG/1.1/DTD/svg11.dtd">
<svg version="1.1" id="Layer_1" xmlns="http://www.w3.org/2000/svg" xmlns:xlink="http://www.w3.org/1999/xlink" x="0px" y="0px"
	 width="32px" height="32px" viewBox="0 0 32 32" enable-background="new 0 0 32 32" xml:space="preserve">
<g>
	<path fill-rule="evenodd" clip-rule="evenodd" fill="#5A5A5A" d="M25.963,21.418c-0.025-0.084-0.062-0.158-0.105-0.22
		C25.768,21.073,25.645,21,25.513,21H22V3.785C22,3.351,21.647,3,21.232,3h-2.5C18.317,3,18,3.351,18,3.785V21h-3.512
		c-0.197,0-0.375,0.168-0.45,0.42s-0.033,0.544,0.105,0.737l5.511,7.643c0.19,0.264,0.499,0.265,0.689,0.001l5.514-7.646
		C25.996,21.961,26.038,21.671,25.963,21.418z M16,6.241V3.755C16,3.342,15.621,3,15.177,3h-9.39C5.343,3,5,3.342,5,3.755v2.486
		C5,6.653,5.343,7,5.787,7h9.39C15.621,7,16,6.653,16,6.241z M16,12.258V9.754C16,9.339,15.605,9,15.144,9H8.845
		C8.383,9,8,9.339,8,9.754v2.504C8,12.674,8.383,13,8.845,13h6.299C15.605,13,16,12.674,16,12.258z M16,18.252v-2.503
		C16,15.333,15.634,15,15.206,15h-3.431C11.347,15,11,15.333,11,15.749v2.503C11,18.668,11.347,19,11.775,19h3.431
		C15.634,19,16,18.668,16,18.252z"/>
</g>
</svg>
