<?xml version="1.0" encoding="utf-8"?>
<!-- Generator: Adobe Illustrator 16.0.3, SVG Export Plug-In . SVG Version: 6.00 Build 0)  -->
<!DOCTYPE svg PUBLIC "-//W3C//DTD SVG 1.1//EN" "http://www.w3.org/Graphics/SVG/1.1/DTD/svg11.dtd">
<svg version="1.1" id="Layer_1" xmlns="http://www.w3.org/2000/svg" xmlns:xlink="http://www.w3.org/1999/xlink" x="0px" y="0px"
	 width="32px" height="32px" viewBox="0 0 32 32" enable-background="new 0 0 32 32" xml:space="preserve">
<g>
	<path fill-rule="evenodd" clip-rule="evenodd" fill="#5A5A5A" d="M27.034,22.219l-6.239-6.236l6.202-6.206
		c1.321-1.322,1.321-3.465,0-4.786c-1.321-1.322-3.463-1.322-4.784,0l-6.204,6.208L9.803,4.997c-1.321-1.321-3.464-1.321-4.786,0
		s-1.322,3.463,0,4.784l6.208,6.205l-6.233,6.237c-1.321,1.32-1.321,3.465,0,4.785c1.321,1.322,3.463,1.322,4.784,0l6.235-6.238
		l6.236,6.232c1.322,1.322,3.465,1.322,4.787,0C28.355,25.682,28.355,23.539,27.034,22.219z"/>
</g>
</svg>
