<?xml version="1.0" encoding="utf-8"?>
<!-- Generator: Adobe Illustrator 16.0.3, SVG Export Plug-In . SVG Version: 6.00 Build 0)  -->
<!DOCTYPE svg PUBLIC "-//W3C//DTD SVG 1.1//EN" "http://www.w3.org/Graphics/SVG/1.1/DTD/svg11.dtd">
<svg version="1.1" id="Layer_1" xmlns="http://www.w3.org/2000/svg" xmlns:xlink="http://www.w3.org/1999/xlink" x="0px" y="0px"
	 width="32px" height="32px" viewBox="0 0 32 32" enable-background="new 0 0 32 32" xml:space="preserve">
<g>
	<g>
		<path fill="#5A5A5A" d="M16.5,1C7.939,1,1,7.939,1,16.5S7.939,32,16.5,32S32,25.061,32,16.5S25.061,1,16.5,1z M15.575,8.585
			c0.39-0.393,0.861-0.59,1.415-0.59c0.563,0,1.039,0.197,1.429,0.59c0.39,0.394,0.584,0.867,0.584,1.421
			c0,0.553-0.196,1.024-0.591,1.414c-0.394,0.389-0.867,0.583-1.422,0.583c-0.554,0-1.025-0.194-1.415-0.583
			c-0.39-0.39-0.584-0.861-0.584-1.414C14.991,9.453,15.186,8.979,15.575,8.585z M20.006,23.993h-6v-0.396
			c0.491-0.016,0.855-0.146,1.093-0.396c0.158-0.168,0.237-0.616,0.237-1.342v-5.718c0-0.726-0.092-1.19-0.273-1.392
			c-0.183-0.202-0.534-0.317-1.057-0.346v-0.407h4.657v7.863c0,0.726,0.091,1.189,0.273,1.391c0.182,0.203,0.538,0.318,1.069,0.348
			V23.993z"/>
	</g>
</g>
</svg>
