<?xml version="1.0" encoding="utf-8"?>
<!-- Generator: Adobe Illustrator 16.0.3, SVG Export Plug-In . SVG Version: 6.00 Build 0)  -->
<!DOCTYPE svg PUBLIC "-//W3C//DTD SVG 1.1//EN" "http://www.w3.org/Graphics/SVG/1.1/DTD/svg11.dtd">
<svg version="1.1" id="Layer_1" xmlns="http://www.w3.org/2000/svg" xmlns:xlink="http://www.w3.org/1999/xlink" x="0px" y="0px"
	 width="32px" height="32px" viewBox="0 0 32 32" enable-background="new 0 0 32 32" xml:space="preserve">
<g>
	<path fill-rule="evenodd" clip-rule="evenodd" fill="#5A5A5A" d="M1,2v28h30V2H1z M22,9v5h-5V9H22z M15,21h-5v-5h5V21z M15,9v5h-5
		V9H15z M3,9h5v5H3V9z M3,16h5v5H3V16z M3,28v-5h5v5H3z M10,28v-5h5v5H10z M17,28v-5h5v5H17z M29,28h-5v-5h5V28z M29,21h-5v-5h5V21z
		 M29,14h-5V9h5V14z"/>
</g>
</svg>
