<?xml version="1.0" encoding="utf-8"?>
<!-- Generator: Adobe Illustrator 18.1.1, SVG Export Plug-In . SVG Version: 6.00 Build 0)  -->
<!DOCTYPE svg PUBLIC "-//W3C//DTD SVG 1.1//EN" "http://www.w3.org/Graphics/SVG/1.1/DTD/svg11.dtd">
<svg version="1.1" id="Layer_1" xmlns="http://www.w3.org/2000/svg" xmlns:xlink="http://www.w3.org/1999/xlink" x="0px" y="0px"
	 viewBox="0 0 180 180" enable-background="new 0 0 180 180" xml:space="preserve">
<g>
	<path fill="none" d="M36,43.9l7.9-7.9C41.1,38.4,38.4,41.1,36,43.9z"/>
	<path fill="none" d="M144,136.1l-7.9,7.9C138.9,141.6,141.6,138.9,144,136.1z"/>
	<path fill="#F2F2F2" d="M117.6,24.6l13.7-13.7c-1.4-0.7-2.8-1.4-4.3-2.1L113,22.8C114.6,23.4,116.1,23.9,117.6,24.6z"/>
	<path fill="#F2F2F2" d="M109.9,21.8l14.4-14.4c-1.4-0.6-2.9-1.2-4.4-1.7l-14.8,14.8C106.7,21,108.3,21.4,109.9,21.8z"/>
	<path fill="#F2F2F2" d="M124.4,27.9l13.4-13.4c-1.2-0.8-2.5-1.5-3.8-2.3l-13.6,13.6C121.8,26.5,123.1,27.2,124.4,27.9z"/>
	<path fill="#F2F2F2" d="M101.7,19.9l15.2-15.2c-1.6-0.5-3.3-1-4.9-1.4L96.1,19.2C98,19.4,99.8,19.6,101.7,19.9z"/>
	<path fill="#F2F2F2" d="M130.8,31.9l13.1-13.1c-1.2-0.9-2.4-1.8-3.7-2.7L127,29.4C128.3,30.2,129.6,31,130.8,31.9z"/>
	<path fill="#F2F2F2" d="M67.4,22.7L89.4,0.6c-2.1,0-4.2,0.1-6.3,0.3L56.8,27.3C60.1,25.5,63.7,23.9,67.4,22.7z"/>
	<path fill="#F2F2F2" d="M90,19c0.7,0,1.5,0,2.2,0.1l16.4-16.4c-1.7-0.4-3.4-0.7-5.1-0.9L86.1,19.1C87.4,19,88.7,19,90,19z"/>
	<path fill="#F2F2F2" d="M27.3,56.8L0.9,83.1c-0.2,2.1-0.3,4.2-0.3,6.3l22.1-22.1C23.9,63.7,25.5,60.1,27.3,56.8z"/>
	<path fill="#F2F2F2" d="M21,73.1L0.7,93.4c0.1,2.2,0.2,4.3,0.5,6.5l18.3-18.3C19.8,78.7,20.3,75.9,21,73.1z"/>
	<path fill="#F2F2F2" d="M43.9,36L78.5,1.4c-2.6,0.3-5.1,0.8-7.7,1.3L2.7,70.9c-0.5,2.5-1,5.1-1.3,7.7L36,43.9
		C38.4,41.1,41.1,38.4,43.9,36z"/>
	<path fill="#F2F2F2" d="M136.5,36.4l13-13c-1.1-1-2.2-1.9-3.3-2.8l-13.1,13.1C134.3,34.5,135.4,35.4,136.5,36.4z"/>
	<path fill="#F2F2F2" d="M81.6,19.5L99.9,1.2c-2.1-0.2-4.3-0.4-6.5-0.5L73.1,21C75.9,20.3,78.7,19.8,81.6,19.5z"/>
	<path fill="#F2F2F2" d="M146.4,46.8l13.1-13.1c-0.9-1.1-1.8-2.2-2.8-3.3l-13,13C144.6,44.6,145.5,45.7,146.4,46.8z"/>
	<path fill="#F2F2F2" d="M159,106.9l20.3-20.3c-0.1-2.2-0.2-4.3-0.5-6.5l-18.3,18.3C160.2,101.3,159.7,104.1,159,106.9z"/>
	<path fill="#F2F2F2" d="M141.7,41.4l13-13c-1-1-2-2.1-3.1-3.1l-13,13C139.7,39.3,140.7,40.3,141.7,41.4z"/>
	<path fill="#F2F2F2" d="M160.8,83.9l15.9-15.9c-0.4-1.7-0.9-3.3-1.4-4.9l-15.2,15.2C160.4,80.2,160.6,82,160.8,83.9z"/>
	<path fill="#F2F2F2" d="M152.7,123.2l26.3-26.3c0.2-2.1,0.3-4.2,0.3-6.3l-22.1,22.1C156.1,116.3,154.5,119.9,152.7,123.2z"/>
	<path fill="#F2F2F2" d="M10.9,48.5l37.6-37.6C32.5,19.3,19.3,32.5,10.9,48.5z"/>
	<path fill="#F2F2F2" d="M56.2,7.3L7.3,56.2c-1.2,3-2.3,6.1-3.2,9.2L65.4,4.1C62.3,5,59.2,6.1,56.2,7.3z"/>
	<path fill="#F2F2F2" d="M161,90c0,1.3,0,2.6-0.1,3.9l17.4-17.4c-0.3-1.7-0.6-3.4-0.9-5.1L161,87.8C161,88.5,161,89.3,161,90z"/>
	<path fill="#F2F2F2" d="M19,90c0-1.3,0-2.6,0.1-3.9L1.6,103.5c0.3,1.7,0.6,3.4,0.9,5.1L19,92.2C19,91.5,19,90.7,19,90z"/>
	<path fill="#F2F2F2" d="M150.6,53l13.3-13.3c-0.9-1.3-1.7-2.5-2.7-3.7l-13.1,13.1C149,50.4,149.8,51.7,150.6,53z"/>
	<path fill="#F2F2F2" d="M159.4,74.9l14.8-14.8c-0.5-1.5-1.1-2.9-1.7-4.4l-14.4,14.4C158.6,71.7,159,73.3,159.4,74.9z"/>
	<path fill="#F2F2F2" d="M157.2,67l14.1-14.1c-0.7-1.4-1.4-2.9-2.1-4.3l-13.7,13.7C156.1,63.9,156.6,65.4,157.2,67z"/>
	<path fill="#F2F2F2" d="M154.2,59.6L167.7,46c-0.7-1.3-1.5-2.5-2.3-3.8l-13.4,13.4C152.8,56.9,153.5,58.2,154.2,59.6z"/>
	<path fill="#F2F2F2" d="M38.3,138.6l-13,13c1,1,2,2.1,3.1,3.1l13-13C40.3,140.7,39.3,139.7,38.3,138.6z"/>
	<path fill="#F2F2F2" d="M25.8,120.4L12.3,134c0.7,1.3,1.5,2.5,2.3,3.8l13.4-13.4C27.2,123.1,26.5,121.8,25.8,120.4z"/>
	<path fill="#F2F2F2" d="M112.6,157.3l-22.1,22.1c2.1,0,4.2-0.1,6.3-0.3l26.3-26.3C119.9,154.5,116.3,156.1,112.6,157.3z"/>
	<path fill="#F2F2F2" d="M178.6,101.5L144,136.1c-2.4,2.8-5.1,5.5-7.9,7.9l-34.6,34.6c2.6-0.3,5.1-0.8,7.7-1.3l68.2-68.2
		C177.8,106.6,178.3,104,178.6,101.5z"/>
	<path fill="#F2F2F2" d="M62.4,155.4l-13.7,13.7c1.4,0.7,2.8,1.4,4.3,2.1L67,157.2C65.4,156.6,63.9,156.1,62.4,155.4z"/>
	<path fill="#F2F2F2" d="M169.1,131.5l-37.6,37.6C147.5,160.7,160.7,147.5,169.1,131.5z"/>
	<path fill="#F2F2F2" d="M29.4,127l-13.3,13.3c0.9,1.3,1.7,2.5,2.7,3.7l13.1-13.1C31,129.6,30.2,128.3,29.4,127z"/>
	<path fill="#F2F2F2" d="M33.6,133.2l-13.1,13.1c0.9,1.1,1.8,2.2,2.8,3.3l13-13C35.4,135.4,34.5,134.3,33.6,133.2z"/>
	<path fill="#F2F2F2" d="M70.1,158.2l-14.4,14.4c1.4,0.6,2.9,1.2,4.4,1.7l14.8-14.8C73.3,159,71.7,158.6,70.1,158.2z"/>
	<path fill="#F2F2F2" d="M55.6,152.1l-13.4,13.4c1.2,0.8,2.5,1.5,3.8,2.3l13.6-13.6C58.2,153.5,56.9,152.8,55.6,152.1z"/>
	<path fill="#F2F2F2" d="M90,161c-0.7,0-1.5,0-2.2-0.1l-16.4,16.4c1.7,0.4,3.4,0.7,5.1,0.9l17.4-17.4C92.6,161,91.3,161,90,161z"/>
	<path fill="#F2F2F2" d="M49.2,148.1l-13.1,13.1c1.2,0.9,2.4,1.8,3.7,2.7L53,150.6C51.7,149.8,50.4,149,49.2,148.1z"/>
	<path fill="#F2F2F2" d="M98.4,160.5l-18.3,18.3c2.1,0.2,4.3,0.4,6.5,0.5l20.3-20.3C104.1,159.7,101.3,160.2,98.4,160.5z"/>
	<path fill="#F2F2F2" d="M43.5,143.6l-13,13c1.1,1,2.2,1.9,3.3,2.8l13.1-13.1C45.7,145.5,44.6,144.6,43.5,143.6z"/>
	<path fill="#F2F2F2" d="M175.9,114.6l-61.3,61.3c3.2-0.9,6.2-2,9.2-3.2l48.9-48.9C173.9,120.8,175,117.7,175.9,114.6z"/>
	<path fill="#F2F2F2" d="M19.2,96.1L3.4,111.9c0.4,1.7,0.9,3.3,1.4,4.9l15.2-15.2C19.6,99.8,19.4,98,19.2,96.1z"/>
	<path fill="#F2F2F2" d="M78.3,160.1l-15.2,15.2c1.6,0.5,3.3,1,4.9,1.4l15.9-15.9C82,160.6,80.2,160.4,78.3,160.1z"/>
	<path fill="#F2F2F2" d="M22.8,113L8.7,127.1c0.7,1.4,1.4,2.9,2.1,4.3l13.7-13.7C23.9,116.1,23.4,114.6,22.8,113z"/>
	<path fill="#F2F2F2" d="M20.6,105.1L5.8,119.9c0.5,1.5,1.1,2.9,1.7,4.4l14.4-14.4C21.4,108.3,21,106.7,20.6,105.1z"/>
</g>
</svg>
