<?xml version="1.0" encoding="utf-8"?>
<!-- Generator: Adobe Illustrator 16.0.3, SVG Export Plug-In . SVG Version: 6.00 Build 0)  -->
<!DOCTYPE svg PUBLIC "-//W3C//DTD SVG 1.1//EN" "http://www.w3.org/Graphics/SVG/1.1/DTD/svg11.dtd">
<svg version="1.1" id="Layer_1" xmlns="http://www.w3.org/2000/svg" xmlns:xlink="http://www.w3.org/1999/xlink" x="0px" y="0px"
	 width="32px" height="32px" viewBox="0 0 32 32" enable-background="new 0 0 32 32" xml:space="preserve">
<g>
	<path fill-rule="evenodd" clip-rule="evenodd" fill="#5A5A5A" d="M29.068,14.367h-1.986c-0.127-0.867-0.354-1.703-0.666-2.494
		l1.719-0.992c0.445-0.258,0.598-0.829,0.34-1.275l-0.699-1.212c-0.258-0.446-0.828-0.6-1.275-0.342l-1.721,0.994
		c-0.535-0.676-1.148-1.289-1.824-1.825l0.994-1.72c0.258-0.446,0.104-1.017-0.342-1.275l-1.213-0.7
		c-0.447-0.258-1.018-0.105-1.275,0.342l-0.992,1.718c-0.791-0.314-1.627-0.54-2.494-0.667V2.933c0-0.516-0.418-0.934-0.934-0.934
		h-1.4c-0.516,0-0.934,0.418-0.934,0.934v1.985c-0.867,0.127-1.703,0.353-2.494,0.667L10.88,3.866
		c-0.258-0.446-0.828-0.599-1.275-0.341l-1.212,0.7C7.946,4.482,7.793,5.053,8.051,5.5l0.993,1.72
		C8.368,7.756,7.755,8.369,7.219,9.045l-1.72-0.994C5.053,7.794,4.482,7.947,4.224,8.393l-0.7,1.213
		c-0.258,0.446-0.104,1.017,0.342,1.275l1.718,0.992c-0.313,0.792-0.54,1.627-0.667,2.494H2.931c-0.515,0-0.933,0.418-0.933,0.934
		v1.4c0,0.516,0.418,0.934,0.933,0.934h1.986c0.126,0.867,0.353,1.703,0.667,2.494L3.865,21.12
		c-0.446,0.258-0.599,0.828-0.341,1.275l0.7,1.213c0.258,0.445,0.829,0.6,1.275,0.342l1.72-0.994
		c0.536,0.676,1.148,1.289,1.825,1.824L8.05,26.501c-0.258,0.447-0.104,1.018,0.342,1.275l1.212,0.699
		c0.447,0.258,1.018,0.105,1.275-0.342l0.992-1.717c0.792,0.313,1.627,0.539,2.494,0.666v1.984c0,0.516,0.418,0.934,0.934,0.934h1.4
		c0.516,0,0.934-0.418,0.934-0.934v-1.984c0.867-0.127,1.703-0.354,2.494-0.666l0.992,1.717c0.258,0.447,0.828,0.6,1.275,0.342
		l1.211-0.699c0.447-0.258,0.6-0.83,0.342-1.275l-0.992-1.721c0.676-0.535,1.289-1.148,1.824-1.824l1.721,0.992
		c0.447,0.258,1.018,0.105,1.275-0.34l0.699-1.213c0.258-0.447,0.105-1.018-0.342-1.275l-1.717-0.992
		c0.313-0.791,0.539-1.627,0.666-2.494h1.986c0.516,0,0.934-0.418,0.934-0.934v-1.4C30.002,14.785,29.584,14.367,29.068,14.367z
		 M16,23.997c-4.417,0-7.997-3.58-7.997-7.997c0-4.417,3.58-7.998,7.997-7.998c4.417,0,7.997,3.581,7.997,7.998
		C23.996,20.417,20.416,23.997,16,23.997z M16,9c-3.866,0-7,3.134-7,7c0,3.866,3.134,7,7,7c3.866,0,7-3.135,7-7
		C23,12.134,19.865,9,16,9z M16,22.001c-3.314,0-6-2.688-6-6c0-3.314,2.686-6,6-6c3.313,0,6,2.687,6,6
		C22,19.313,19.313,22.001,16,22.001z"/>
</g>
</svg>
